<svg width="316" height="167" viewBox="0 0 316 167" fill="none" xmlns="http://www.w3.org/2000/svg">
<path d="M214.68 7.75181C216.612 5.56699 218.964 3.63427 220.559 1.19736C220.727 0.945262 220.643 0.609137 220.391 0.441074C220.139 0.273011 219.804 0.357042 219.636 0.609137C218.04 2.96202 215.688 4.89474 213.841 6.99552C213.673 7.24762 213.673 7.58374 213.925 7.83584C214.177 8.0039 214.513 8.0039 214.68 7.75181Z" fill="#3D248A"/>
<path d="M219.048 15.3147C223.415 14.2223 227.866 12.7097 232.317 11.9534C232.653 11.8694 232.821 11.6173 232.737 11.2812C232.653 10.945 232.401 10.777 232.065 10.861C227.614 11.7013 223.079 13.1299 218.712 14.3063C218.376 14.3903 218.208 14.7265 218.292 14.9786C218.46 15.2306 218.796 15.3987 219.048 15.3147Z" fill="#3D248A"/>
<path d="M218.208 23.4657C221.231 24.222 224.423 25.2304 227.362 26.1548C227.698 26.2388 227.95 26.0707 228.118 25.8186C228.202 25.4825 228.034 25.2304 227.782 25.0623C224.843 24.138 221.651 23.1296 218.544 22.3733C218.208 22.2893 217.956 22.4574 217.872 22.7935C217.704 23.0456 217.872 23.3817 218.208 23.4657Z" fill="#3D248A"/>
<path d="M106.76 22.3733C103.988 23.2976 100.965 23.8018 98.3614 25.0623C98.1095 25.2304 97.9415 25.5665 98.1095 25.8186C98.2775 26.0707 98.6134 26.2387 98.8653 26.0707C101.469 24.8102 104.408 24.306 107.096 23.4657C107.432 23.3817 107.516 23.0455 107.432 22.7094C107.432 22.4573 107.096 22.2893 106.76 22.3733Z" fill="#3D248A"/>
<path d="M106.76 13.7181C102.393 12.4577 97.7735 11.5333 93.5743 10.0208C93.2383 9.93673 92.9864 10.1048 92.8184 10.3569C92.7344 10.693 92.9024 10.9451 93.1544 11.1132C97.4376 12.6257 102.057 13.6341 106.424 14.8106C106.76 14.8946 107.012 14.7265 107.096 14.3904C107.264 14.0543 107.096 13.8022 106.76 13.7181Z" fill="#3D248A"/>
<path d="M111.631 7.07965C109.363 4.89483 107.18 2.45792 105.08 0.189071C104.828 -0.0630236 104.492 -0.0630236 104.24 0.189071C103.988 0.441165 103.988 0.77729 104.24 1.02938C106.34 3.38226 108.608 5.81917 110.875 8.00399C111.127 8.25609 111.463 8.25609 111.715 8.00399C111.883 7.66787 111.799 7.33174 111.631 7.07965Z" fill="#3D248A"/>
<path d="M190.867 111.989C202.892 116.799 220.673 119.359 234.272 114.344C237.839 113.028 242.614 110.697 246.311 107.498C248.875 105.35 250.864 102.843 251.68 100.073C253.147 95.29 248.9 91.6644 245.475 90.2685C239.345 87.7173 229.401 88.2186 222.408 92.9503C222.15 93.1088 222.05 93.5255 222.244 93.7073C222.402 93.9655 222.818 94.0652 223 93.8715C229.624 89.3394 239.116 88.8147 244.941 91.2252C246.501 91.8528 248.226 92.9262 249.363 94.4694C250.46 95.901 251.117 97.6848 250.465 99.6979C249.644 102.28 247.76 104.558 245.419 106.624C241.793 109.67 237.129 111.96 233.674 113.235C220.374 118.203 202.893 115.596 191.096 110.892C190.791 110.751 190.457 110.875 190.316 111.18C190.439 111.514 190.562 111.849 190.867 111.989Z" fill="#3D248A"/>
<path d="M303.139 32.3648V39.3735C303.139 39.833 303.483 40.1777 303.943 40.1777C304.402 40.1777 304.746 39.833 304.746 39.3735V32.3648C304.746 31.9052 304.402 31.5605 303.943 31.5605C303.483 31.5605 303.139 31.9052 303.139 32.3648Z" fill="#3D248A"/>
<path d="M315.196 42.8204H308.191C307.732 42.8204 307.388 43.1651 307.388 43.6246C307.388 44.0842 307.732 44.4289 308.191 44.4289H315.196C315.656 44.4289 316 44.0842 316 43.6246C316 43.1651 315.541 42.8204 315.196 42.8204Z" fill="#3D248A"/>
<path d="M303.139 47.7609V54.7696C303.139 55.2292 303.483 55.5739 303.943 55.5739C304.402 55.5739 304.746 55.2292 304.746 54.7696V47.7609C304.746 47.3014 304.402 46.9567 303.943 46.9567C303.483 46.9567 303.139 47.3014 303.139 47.7609Z" fill="#3D248A"/>
<path d="M299.809 42.8204H292.804C292.344 42.8204 292 43.1651 292 43.6246C292 44.0842 292.344 44.4289 292.804 44.4289H299.809C300.268 44.4289 300.612 44.0842 300.612 43.6246C300.612 43.1651 300.268 42.8204 299.809 42.8204Z" fill="#3D248A"/>
<path d="M111.244 129.953V140.174C111.244 140.844 111.746 141.347 112.416 141.347C113.086 141.347 113.589 140.844 113.589 140.174V129.953C113.589 129.282 113.086 128.78 112.416 128.78C111.746 128.78 111.244 129.282 111.244 129.953Z" fill="#3D248A"/>
<path d="M128.828 145.2H118.612C117.943 145.2 117.44 145.703 117.44 146.373C117.44 147.044 117.943 147.546 118.612 147.546H128.828C129.498 147.546 130 147.044 130 146.373C130 145.703 129.33 145.2 128.828 145.2Z" fill="#3D248A"/>
<path d="M111.244 152.405V162.626C111.244 163.297 111.746 163.799 112.416 163.799C113.086 163.799 113.589 163.297 113.589 162.626V152.405C113.589 151.735 113.086 151.232 112.416 151.232C111.746 151.232 111.244 151.735 111.244 152.405Z" fill="#3D248A"/>
<path d="M106.387 145.2H96.1722C95.5024 145.2 95 145.703 95 146.373C95 147.044 95.5024 147.546 96.1722 147.546H106.387C107.057 147.546 107.56 147.044 107.56 146.373C107.56 145.703 107.057 145.2 106.387 145.2Z" fill="#3D248A"/>
<path d="M59.4929 134.099C43.7479 132.941 26.0559 128.386 15.9915 115.319C10.7423 108.455 7.406 99.0483 12.3351 90.7726C14.4418 87.2099 16.478 83.7998 19.353 80.7769C22.7795 77.3606 27.3088 74.3607 31.6033 72.2704C46.0064 65.3128 63.1949 64.5456 80.2244 67.1293C105.901 71.0196 131.511 82.4684 147.325 91.895C147.63 92.0358 147.929 91.9888 148.146 91.7187C148.287 91.4136 148.24 91.1143 147.97 90.8972C132.004 81.4002 106.241 69.881 80.3771 65.9967C63.0836 63.3837 45.6722 64.2331 31.0462 71.2729C26.5288 73.4454 21.888 76.4864 18.391 80.0553C15.4398 83.0431 13.3331 86.6057 11.1913 90.2447C6.00984 98.8667 9.43992 108.872 15 116.065C25.2227 129.39 43.296 134.121 59.305 135.308C59.6452 135.373 59.8624 135.103 59.9269 134.762C60.0678 134.457 59.8332 134.164 59.4929 134.099Z" fill="#3D248A"/>
<path d="M145.225 57.2463C142.621 57.2463 140.186 55.8178 138.842 53.549C135.147 47.1626 128.344 35.3982 123.473 26.995C122.633 25.5665 122.633 23.7178 123.473 22.2893C124.313 20.8607 125.825 19.9364 127.588 19.9364H135.987C136.994 19.9364 137.834 19.0961 137.834 18.0877C137.834 17.0793 136.994 16.239 135.987 16.239H127.588C124.565 16.239 121.793 17.8356 120.365 20.4406C118.854 23.0456 118.854 26.2387 120.365 28.8437C125.237 37.2469 132.039 49.0113 135.735 55.3976C137.666 58.7589 141.362 60.8597 145.309 60.8597V57.2463H145.225Z" fill="#3D248A"/>
<path d="M192.676 19.9363H199.731C201.411 19.9363 203.007 20.8607 203.846 22.2892C204.686 23.7178 204.686 25.5665 203.846 26.995C198.975 35.4822 192.089 47.2466 188.393 53.6329C187.133 55.8178 184.782 57.2463 182.178 57.2463V60.9437C186.042 60.9437 189.653 58.9269 191.585 55.5657C195.28 49.1793 202.083 37.4149 207.038 28.9277C208.55 26.3227 208.55 23.1295 207.038 20.5246C205.526 17.9196 202.755 16.323 199.815 16.323H192.76C191.753 16.323 190.913 17.1633 190.913 18.1717C190.913 19.096 191.669 19.9363 192.676 19.9363Z" fill="#3D248A"/>
<path d="M180.919 10.861H146.401L155.051 3.63428H172.268L180.919 10.861Z" fill="#FF5784"/>
<path d="M170 99.5982H157.907L160.93 69.7671H166.977L170 99.5982Z" fill="#FF5784"/>
<path d="M133.383 10.861H194.104L178.903 72.456L163.954 80.0188L148.5 72.456L133.383 10.861Z" fill="#3D248A"/>
<path d="M182.178 108.59H146.401L155.387 93.1278H173.276L182.178 108.59Z" fill="#FF5784"/>
<path d="M183.69 106.237H143.713V121.614H183.69V106.237Z" fill="#3D248A"/>
<path d="M84.5821 97.7859C78.7032 97.7859 74 102.492 74 108.374C74 114.256 78.7032 118.962 84.5821 118.962C90.461 118.962 95.1642 114.256 95.1642 108.374C95.1642 102.492 90.377 97.7859 84.5821 97.7859ZM84.5821 98.8783C89.7892 98.8783 93.9884 103.08 93.9884 108.29C93.9884 113.5 89.7892 117.701 84.5821 117.701C79.375 117.701 75.1758 113.5 75.1758 108.29C75.1758 103.164 79.375 98.8783 84.5821 98.8783Z" fill="#3D248A"/>
<path d="M308.787 84.7859C306.184 84.7859 304 86.8867 304 89.5757C304 92.1807 306.1 94.3655 308.787 94.3655C311.391 94.3655 313.574 92.2647 313.574 89.5757C313.574 86.8867 311.475 84.7859 308.787 84.7859ZM308.787 85.9623C310.803 85.9623 312.398 87.5589 312.398 89.5757C312.398 91.5924 310.803 93.189 308.787 93.189C306.772 93.189 305.176 91.5924 305.176 89.5757C305.26 87.5589 306.855 85.9623 308.787 85.9623Z" fill="#3D248A"/>
<path d="M246.199 52.7859C248.467 52.7859 250.398 54.6346 250.398 56.9875C250.398 59.2563 248.551 61.189 246.199 61.189C243.932 61.189 242 59.3403 242 56.9875C242 54.6346 243.848 52.7859 246.199 52.7859Z" fill="#3D248A"/>
<path d="M162.526 30.1042L159.166 33.2974C158.411 33.9696 157.235 33.9696 156.563 33.2133C155.891 32.457 155.891 31.2806 156.647 30.6083L163.114 24.39C163.618 23.8858 164.458 23.7178 165.129 24.0539C165.801 24.306 166.221 24.9782 166.221 25.7345V48.1709C166.221 49.1793 165.381 50.0196 164.374 50.0196C163.366 50.0196 162.526 49.1793 162.526 48.1709V30.1042Z" fill="white"/>
</svg>
